<svg class="svg-icon" style="width: 1em; height: 1em;vertical-align: middle;fill: currentColor;overflow: hidden;" viewBox="0 0 1024 1024" version="1.1" xmlns="http://www.w3.org/2000/svg"><path d="M917.020444 472.604444c0 4.224-0.113778 8.419556-0.64 12.515556-4.522667 42.496-31.274667 78.606222-68.650667 95.815111-12.145778 5.774222-25.287111 9.344-39.068444 10.709333-3.768889 0.327111-7.438222 0.540444-11.221333 0.540444-1.152 0-2.318222 0-3.456-0.213333-17.735111-0.426667-34.332444-4.750222-49.237333-12.103111-9.230222-4.522667-17.735111-10.168889-25.400889-16.796444-22.357333-19.313778-37.589333-46.819556-40.817778-77.980444-0.412444-4.081778-0.64-8.291556-0.64-12.515556 0-22.769778 6.215111-43.761778 17.095111-61.795556 0.312889-0.540444 0.64-1.052444 0.839111-1.464889 16.583111-26.680889 43.363556-46.094222 74.851556-53.347556 8.604444-1.891556 17.507556-2.944 26.766222-2.944 48.910222 0 91.008 29.184 109.383111 71.281778 0 0.113778 0.199111 0.113778 0.199111 0.298667C913.351111 439.267556 917.020444 455.523556 917.020444 472.604444zM867.057778 587.576889c-6.200889-2.531556-12.515556-4.849778-19.313778-6.641778-31.900444-8.504889-69.376-8.903111-102.968889-1.038222-8.405333 2.090667-16.796444 4.608-24.661333 7.68-0.213333 0.071111-0.540444 0.213333-0.739556 0.298667-17.507556 6.926222-33.507556 14.492444-47.843556 22.371556-80.725333 44.259556-112.227556 100.778667-110.762667 146.417778 1.678222 53.959111 219.278222 52.067556 237.653333 52.167111 18.261333 0.213333 218.624 1.251556 219.676444-52.167111C1016.632889 682.353778 909.767111 605.297778 867.057778 587.576889zM800.910222 769.052444l-47.217778-38.741333 40.305778-138.339556c1.137778 0.227556 2.304 0.227556 3.470222 0.227556 3.768889 0 7.438222-0.227556 11.207111-0.540444l33.92 139.392L800.910222 769.052444zM526.222222 270.222222 526.222222 270.222222zM597.333333 640c0 31.288889-25.6 56.888889-56.888889 56.888889L71.111111 696.888889c-31.288889 0-56.888889-25.6-56.888889-56.888889L14.222222 341.333333c0-31.288889 25.6-56.888889 56.888889-56.888889l469.333333 0c31.288889 0 56.888889 25.6 56.888889 56.888889L597.333333 640zM298.666667 668.444444l42.666667 0 0 113.777778-42.666667 0 0-113.777778ZM440.888889 753.777778c31.288889 0 56.888889 6.4 56.888889 14.222222s-25.6 14.222222-56.888889 14.222222L199.111111 782.222222c-31.288889 0-56.888889-6.4-56.888889-14.222222s25.6-14.222222 56.888889-14.222222L440.888889 753.777778zM961.777778 732.444444 961.777778 732.444444z"  /></svg>